<?xml version="1.0" encoding="utf-8"?>
<!-- Generator: Adobe Illustrator 16.0.0, SVG Export Plug-In . SVG Version: 6.00 Build 0)  -->
<!DOCTYPE svg PUBLIC "-//W3C//DTD SVG 1.1//EN" "http://www.w3.org/Graphics/SVG/1.1/DTD/svg11.dtd">
<svg version="1.1" id="Capa_1" xmlns="http://www.w3.org/2000/svg" xmlns:xlink="http://www.w3.org/1999/xlink" x="0px" y="0px"
	 width="28px" height="28px" viewBox="0 0 28 28" enable-background="new 0 0 28 28" xml:space="preserve">
<path fill-rule="evenodd" clip-rule="evenodd" fill="#FFFFFF" d="M20.942,12.5c-0.583,0.435-1.167,0.866-1.748,1.304
	c-1.409,1.065-2.824,2.125-4.221,3.208c-0.319,0.246-0.56,0.193-0.844-0.021c-1.691-1.289-3.385-2.571-5.081-3.853
	c-0.285-0.215-0.579-0.415-0.946-0.676c-0.019,0.255-0.044,0.429-0.045,0.603c-0.002,2.76-0.001,5.521-0.003,8.279
	c0,0.613-0.002,0.613-0.629,0.615c-0.689,0-1.38,0.008-2.069-0.004c-1-0.016-1.527-0.529-1.531-1.525
	c-0.018-3.521-0.021-7.042-0.032-10.564c-0.002-0.604-0.038-1.207-0.036-1.81c0.004-0.912,0.397-1.62,1.22-2.025
	c0.82-0.403,1.607-0.3,2.346,0.26c2.302,1.744,4.614,3.471,6.912,5.22c0.256,0.195,0.418,0.19,0.668,0
	c1.886-1.435,3.774-2.868,5.682-4.276c0.643-0.474,1.298-0.98,2.026-1.279c1.248-0.511,2.685,0.524,2.708,1.877
	c0.028,1.652,0.023,3.306,0.026,4.959c0.002,2.501,0.002,5.003-0.003,7.503c-0.002,1.176-0.512,1.672-1.686,1.678
	c-0.69,0.004-1.382-0.012-2.069,0.031c-0.424,0.023-0.515-0.15-0.515-0.525c0.012-2.5,0.007-5.002,0.007-7.504
	c0-0.469,0-0.939,0-1.408C21.033,12.544,20.988,12.522,20.942,12.5z"/>
</svg>
