<?xml version="1.0" encoding="utf-8"?>
<!-- Generator: Adobe Illustrator 16.0.0, SVG Export Plug-In . SVG Version: 6.00 Build 0)  -->
<!DOCTYPE svg PUBLIC "-//W3C//DTD SVG 1.1//EN" "http://www.w3.org/Graphics/SVG/1.1/DTD/svg11.dtd">
<svg version="1.1" id="Capa_1" xmlns="http://www.w3.org/2000/svg" xmlns:xlink="http://www.w3.org/1999/xlink" x="0px" y="0px"
	 width="28px" height="28px" viewBox="0 0 28 28" enable-background="new 0 0 28 28" xml:space="preserve">
<path fill-rule="evenodd" clip-rule="evenodd" fill="#FFFFFF" d="M15.668,3.992c0.323,0,0.647,0,0.971,0
	c0.009,0.018,0.025,0.011,0.038,0.011c0.488,0.012,0.975,0.037,1.461,0.079c0.141,0.012,0.28,0.022,0.419,0.044
	c0,0.98,0,1.96,0,2.94c-0.028,0-0.057,0.001-0.085,0.001c-0.621,0.004-1.242-0.009-1.862,0.007
	c-0.235,0.006-0.467,0.045-0.688,0.133c-0.3,0.118-0.51,0.326-0.623,0.629c-0.09,0.245-0.115,0.5-0.116,0.757
	c-0.002,0.697,0,1.395,0.001,2.092c0,0.014,0.001,0.027-0.001,0.041c-0.003,0.032,0.007,0.047,0.043,0.044
	c0.042-0.003,0.084-0.001,0.126-0.001c1.015,0,2.029,0,3.044,0c0.046,0,0.047,0.001,0.041,0.045
	c-0.013,0.099-0.025,0.198-0.038,0.297c-0.041,0.316-0.082,0.631-0.123,0.947c-0.041,0.316-0.081,0.631-0.122,0.947
	c-0.043,0.334-0.086,0.667-0.129,1.001c-0.007,0.054-0.006,0.054-0.06,0.054c-0.908,0-1.816,0-2.725,0c-0.057,0-0.057,0-0.057,0.056
	c0,2.782,0,5.564,0,8.347c0,0.015-0.003,0.029,0.003,0.044c-1.136,0-2.271,0-3.406,0c0.01-0.016,0.005-0.034,0.005-0.051
	c0-2.779,0-5.559,0-8.338c0-0.058,0-0.058-0.058-0.058c-0.912,0-1.824,0-2.736,0c-0.016,0-0.032,0.002-0.048,0.004
	c0-1.099,0-2.197,0-3.296c0.015,0,0.029,0.001,0.045,0.001c0.914,0,1.828,0,2.743,0c0.054,0,0.054,0,0.054-0.053
	c0-0.78,0.001-1.56,0-2.34c0-0.061-0.004-0.121-0.002-0.181c0.007-0.268,0.027-0.535,0.07-0.799
	c0.077-0.487,0.217-0.954,0.447-1.392c0.241-0.458,0.563-0.851,0.973-1.168c0.487-0.376,1.04-0.609,1.641-0.733
	c0.238-0.049,0.479-0.081,0.722-0.097C15.647,4.005,15.664,4.011,15.668,3.992z"/>
</svg>
