<?xml version="1.0" encoding="utf-8"?>
<!-- Generator: Adobe Illustrator 16.0.0, SVG Export Plug-In . SVG Version: 6.00 Build 0)  -->
<!DOCTYPE svg PUBLIC "-//W3C//DTD SVG 1.1//EN" "http://www.w3.org/Graphics/SVG/1.1/DTD/svg11.dtd">
<svg version="1.1" id="Capa_1" xmlns="http://www.w3.org/2000/svg" xmlns:xlink="http://www.w3.org/1999/xlink" x="0px" y="0px"
	 width="37px" height="37px" viewBox="0 0 37 37" enable-background="new 0 0 37 37" xml:space="preserve">
<path fill-rule="evenodd" clip-rule="evenodd" fill="#FFFFFF" d="M24.106,2.5c0.541,0.042,1.082,0.083,1.625,0.127
	c0.373,0.03,0.747,0.066,1.131,0.101c0,1.714,0,3.399,0,5.126c-0.12,0-0.231-0.001-0.343,0c-1.111,0.016-2.225-0.003-3.334,0.057
	c-1.355,0.073-2.098,0.801-2.152,2.146c-0.055,1.372-0.021,2.748-0.025,4.123c0,0.029,0.016,0.058,0.035,0.124
	c0.925,0,1.855,0,2.786,0c0.932,0,1.863,0,2.843,0c-0.248,1.923-0.491,3.809-0.738,5.729c-1.64,0-3.262,0-4.905,0
	c-0.011,0.122-0.024,0.213-0.024,0.303c-0.002,4.731-0.002,9.464,0,14.196c0,0.073,0.01,0.146,0.016,0.219c-1.974,0-3.947,0-5.92,0
	c-0.006-0.136-0.017-0.272-0.017-0.408c0-4.617,0-9.234,0-13.852c0-0.135,0-0.27,0-0.443c-1.659,0-3.29,0-4.939,0
	c0-1.925,0-3.81,0-5.735c1.63,0,3.262,0,4.939,0c0-0.161,0-0.283,0-0.405c0.006-1.5-0.032-3.003,0.03-4.501
	c0.074-1.807,0.608-3.464,1.883-4.813c0.969-1.026,2.178-1.614,3.545-1.897c0.367-0.076,0.739-0.131,1.108-0.195
	C22.469,2.5,23.287,2.5,24.106,2.5z"/>
</svg>
