<?xml version="1.0" encoding="utf-8"?>
<!-- Generator: Adobe Illustrator 16.0.0, SVG Export Plug-In . SVG Version: 6.00 Build 0)  -->
<!DOCTYPE svg PUBLIC "-//W3C//DTD SVG 1.1//EN" "http://www.w3.org/Graphics/SVG/1.1/DTD/svg11.dtd">
<svg version="1.1" id="Capa_1" xmlns="http://www.w3.org/2000/svg" xmlns:xlink="http://www.w3.org/1999/xlink" x="0px" y="0px"
	 width="28px" height="28px" viewBox="0 0 28 28" enable-background="new 0 0 28 28" xml:space="preserve">
<path fill-rule="evenodd" clip-rule="evenodd" fill="#FFFFFF" d="M14.212,4.12c1.657,0,3.315-0.002,4.973,0.001
	c3.108,0.005,5.361,2.251,5.366,5.35c0.004,3.329,0.004,6.659,0,9.988c-0.003,3.127-2.251,5.373-5.379,5.376
	c-3.317,0.003-6.633,0.003-9.949,0c-3.133-0.003-5.382-2.245-5.385-5.37c-0.004-3.329-0.005-6.659,0-9.989
	c0.004-3.101,2.256-5.349,5.36-5.355C10.869,4.117,12.541,4.12,14.212,4.12z M22.829,14.496c0-1.645,0.001-3.289,0-4.934
	c-0.004-2.266-1.452-3.719-3.716-3.721c-3.287-0.003-6.576-0.003-9.864,0C7.019,5.845,5.562,7.308,5.56,9.548
	c-0.003,3.288-0.003,6.577,0,9.864c0.002,2.238,1.461,3.698,3.695,3.702c3.289,0.003,6.577,0.002,9.866,0
	c2.257-0.002,3.705-1.459,3.709-3.727C22.83,17.757,22.829,16.126,22.829,14.496z"/>
<path fill-rule="evenodd" clip-rule="evenodd" fill="#FFFFFF" d="M14.17,19.655c-2.849-0.012-5.161-2.342-5.154-5.192
	c0.007-2.865,2.354-5.186,5.222-5.163c2.848,0.022,5.152,2.36,5.134,5.211C19.354,17.36,17.02,19.668,14.17,19.655z M14.185,17.933
	c1.886,0.008,3.445-1.538,3.464-3.436c0.018-1.88-1.526-3.447-3.425-3.474c-1.893-0.026-3.485,1.552-3.484,3.456
	C10.741,16.367,12.292,17.924,14.185,17.933z"/>
<path fill-rule="evenodd" clip-rule="evenodd" fill="#FFFFFF" d="M19.79,7.584c0.721-0.006,1.288,0.543,1.298,1.259
	c0.012,0.731-0.567,1.323-1.289,1.318c-0.7-0.004-1.286-0.59-1.288-1.29C18.506,8.166,19.079,7.591,19.79,7.584z"/>
</svg>
